<?xml version="1.0" standalone="no"?>
<!DOCTYPE svg PUBLIC "-//W3C//DTD SVG 20010904//EN"
 "http://www.w3.org/TR/2001/REC-SVG-20010904/DTD/svg10.dtd">
<svg version="1.0" xmlns="http://www.w3.org/2000/svg"
 width="512.000000pt" height="512.000000pt" viewBox="0 0 512.000000 512.000000"
 preserveAspectRatio="xMidYMid meet">
<metadata>
Created by potrace 1.11, written by Peter Selinger 2001-2013
</metadata>
<g transform="translate(0.000000,512.000000) scale(0.100000,-0.100000)"
fill="#000000" stroke="none">
<path d="M0 2338 l0 -2338 2560 0 2560 0 0 2323 c0 1507 -4 2327 -10 2337 -9
13 -11 13 -20 0 -9 -13 -10 -13 -10 0 0 11 -2 12 -8 3 -12 -19 -120 -24 -137
-6 -12 11 -15 11 -15 1 0 -10 -3 -9 -10 2 -9 13 -11 13 -20 0 -7 -11 -10 -12
-10 -2 0 10 -4 9 -16 -3 -11 -10 -20 -13 -26 -7 -6 6 -34 8 -64 6 -30 -2 -79
-6 -109 -8 -56 -4 -78 9 -27 17 15 2 5 3 -23 1 -27 -2 -59 -4 -70 -4 -17 0
-18 -2 -5 -10 11 -8 8 -9 -14 -6 -16 3 -33 11 -38 18 -6 10 -8 10 -8 -2 0 -13
-1 -13 -10 0 -9 13 -11 13 -20 0 -9 -13 -10 -13 -10 0 0 11 -2 12 -8 3 -12
-19 -120 -24 -137 -6 -12 11 -15 11 -15 1 0 -10 -3 -9 -10 2 -9 13 -11 13 -20
0 -7 -11 -10 -12 -10 -2 0 10 -4 9 -16 -3 -11 -10 -20 -13 -26 -7 -6 6 -34 8
-64 6 -30 -2 -79 -6 -109 -8 -56 -4 -78 9 -27 17 15 2 5 3 -23 1 -27 -2 -59
-4 -70 -4 -17 0 -18 -2 -5 -10 11 -8 8 -9 -14 -6 -16 3 -33 11 -38 18 -6 10
-8 10 -8 -2 0 -13 -1 -13 -10 0 -9 13 -11 13 -20 0 -9 -13 -10 -13 -10 0 0 11
-2 12 -8 3 -12 -19 -120 -24 -137 -6 -12 11 -15 11 -15 1 0 -10 -3 -9 -10 2
-9 13 -11 13 -20 0 -7 -11 -10 -12 -10 -2 0 10 -4 9 -16 -3 -11 -10 -20 -13
-26 -7 -6 6 -34 8 -64 6 -30 -2 -79 -6 -109 -8 -56 -4 -78 9 -27 17 15 2 5 3
-23 1 -27 -2 -59 -4 -70 -4 -17 0 -18 -2 -5 -10 11 -8 8 -9 -14 -6 -16 3 -33
11 -38 18 -6 10 -8 10 -8 -2 0 -13 -1 -13 -10 0 -9 13 -11 13 -20 0 -9 -13
-10 -13 -10 0 0 11 -2 12 -8 3 -12 -19 -120 -24 -137 -6 -12 11 -15 11 -15 1
0 -10 -3 -9 -10 2 -9 13 -11 13 -20 0 -7 -11 -10 -12 -10 -2 0 10 -4 9 -16 -3
-11 -10 -20 -13 -26 -7 -6 6 -34 8 -64 6 -30 -2 -79 -6 -109 -8 -56 -4 -78 9
-27 17 15 2 5 3 -23 1 -27 -2 -59 -4 -70 -4 -17 0 -18 -2 -5 -10 11 -8 8 -9
-14 -6 -16 3 -33 11 -38 18 -6 10 -8 10 -8 -2 0 -13 -1 -13 -10 0 -9 13 -11
13 -20 0 -9 -13 -10 -13 -10 0 0 11 -2 12 -8 3 -12 -19 -120 -24 -137 -6 -12
11 -15 11 -15 1 0 -10 -3 -9 -10 2 -9 13 -11 13 -20 0 -7 -11 -10 -12 -10 -2
0 10 -4 9 -16 -3 -11 -10 -20 -13 -26 -7 -6 6 -34 8 -64 6 -30 -2 -79 -6 -109
-8 -56 -4 -78 9 -27 17 15 2 5 3 -23 1 -27 -2 -59 -4 -70 -4 -17 0 -18 -2 -5
-10 11 -8 8 -9 -14 -6 -16 3 -33 11 -38 18 -6 10 -8 10 -8 -2 0 -13 -1 -13
-10 0 -9 13 -11 13 -20 0 -9 -13 -10 -13 -10 0 0 11 -2 12 -8 3 -12 -19 -120
-24 -137 -6 -12 11 -15 11 -15 1 0 -10 -3 -9 -10 2 -9 13 -11 13 -20 0 -7 -11
-10 -12 -10 -2 0 10 -4 9 -16 -3 -11 -10 -20 -13 -26 -7 -6 6 -34 8 -64 6 -30
-2 -79 -6 -109 -8 -56 -4 -78 9 -27 17 15 2 5 3 -23 1 -27 -2 -59 -4 -70 -4
-17 0 -18 -2 -5 -10 11 -8 8 -9 -14 -6 -16 3 -33 11 -38 18 -6 10 -8 10 -8 -2
0 -13 -1 -13 -10 0 -9 13 -11 13 -20 0 -9 -13 -10 -13 -10 0 0 11 -2 12 -8 3
-12 -19 -120 -24 -137 -6 -12 11 -15 11 -15 1 0 -10 -3 -9 -10 2 -9 13 -11 13
-20 0 -7 -11 -10 -12 -10 -2 0 10 -4 9 -16 -3 -11 -10 -20 -13 -26 -7 -6 6
-34 8 -64 6 -30 -2 -79 -6 -109 -8 -56 -4 -78 9 -27 17 15 2 5 3 -23 1 -27 -2
-59 -4 -70 -4 -17 0 -18 -2 -5 -10 11 -8 8 -9 -14 -6 -16 3 -33 11 -38 18 -6
10 -8 10 -8 -2 0 -13 -1 -13 -10 0 -9 13 -11 13 -20 0 -9 -13 -10 -13 -10 0 0
11 -2 12 -8 3 -12 -19 -120 -24 -137 -6 -12 11 -15 11 -15 1 0 -10 -3 -9 -10
2 -9 13 -11 13 -20 0 -7 -11 -10 -12 -10 -2 0 10 -4 9 -16 -3 -11 -10 -20 -13
-26 -7 -6 6 -34 8 -64 6 -30 -2 -79 -6 -109 -8 -56 -4 -78 9 -27 17 15 2 5 3
-23 1 -27 -2 -59 -4 -70 -4 -17 0 -18 -2 -5 -10 11 -8 8 -9 -14 -6 -16 3 -33
11 -37 18 -5 7 -9 -1039 -9 -2324z m2622 426 l3 -1306 304 1183 c168 651 309
1199 314 1218 8 33 9 33 50 27 23 -4 46 -11 51 -16 6 -6 -112 -477 -304 -1217
-172 -665 -315 -1215 -318 -1223 -2 -8 264 433 593 980 328 547 603 1005 611
1018 l15 23 42 -25 c23 -14 41 -29 40 -34 -1 -7 -1002 -1675 -1175 -1959 -11
-18 -18 -33 -16 -33 3 0 303 303 668 673 365 369 669 673 675 675 6 1 25 -12
42 -30 l32 -33 -706 -713 c-388 -392 -704 -714 -702 -716 2 -2 236 136 519
305 283 169 518 308 522 308 8 1 62 -79 56 -84 -2 -1 -230 -137 -507 -301
l-505 -299 87 -3 87 -3 0 -44 0 -45 -167 0 -167 0 -92 -55 c-51 -30 -95 -55
-99 -55 -3 0 -49 25 -101 55 l-96 55 -174 0 -174 0 0 45 0 45 97 0 97 0 -520
301 c-285 166 -520 303 -522 304 -4 4 47 85 53 85 2 0 232 -133 511 -295 279
-162 509 -295 511 -295 3 0 -308 316 -691 702 l-695 703 32 33 c17 18 36 31
42 30 6 -2 310 -306 675 -675 365 -370 665 -673 668 -673 2 0 -5 15 -16 33
-173 284 -1174 1952 -1175 1959 -1 5 17 20 40 34 l42 25 15 -23 c8 -13 283
-471 611 -1018 329 -547 595 -988 593 -980 -3 8 -146 558 -318 1223 -192 740
-310 1211 -304 1217 5 5 28 12 51 16 41 6 42 6 50 -27 5 -19 146 -567 314
-1218 l304 -1183 3 1306 2 1306 60 0 60 0 2 -1306z"/>
</g>
</svg>
