<?xml version="1.0" encoding="UTF-8"?>
<svg width="606px" height="327px" viewBox="0 0 606 327" version="1.1" xmlns="http://www.w3.org/2000/svg" xmlns:xlink="http://www.w3.org/1999/xlink">
    <!-- Generator: Sketch 54.1 (76490) - https://sketchapp.com -->
    <title>Developer</title>
    <desc>Created with Sketch.</desc>
    <g id="New-website" stroke="none" stroke-width="1" fill="none" fill-rule="evenodd">
        <g id="Main" transform="translate(-171.000000, -2225.000000)" fill-rule="nonzero">
            <g id="Open-source" transform="translate(0.000000, 1919.000000)">
                <g id="Developer" transform="translate(171.000000, 306.000000)">
                    <path d="M605.999624,210.018223 C606.006899,218.907929 604.78581,227.755948 602.371044,236.310921 C600.037135,244.558296 596.603698,252.453482 592.163345,259.783515 C592.163345,286.34126 574.248223,309.294361 548.244282,320.214312 C537.37815,324.731508 525.721897,327.038099 513.955523,326.999524 L115.039484,326.999524 C93.7182643,326.999524 73.9597182,321.242695 57.7555916,311.435943 C53.1180867,308.642217 48.7188475,305.470324 44.6026506,301.952549 C26.5921797,286.463182 15.4256877,265.057957 15.4256877,241.415733 C5.31765034,225.839878 -0.0420997162,207.656874 0.00024902819,189.084783 C0.00024902819,150.197035 22.9847883,116.758661 55.9121669,101.995523 C60.2845677,100.03608 64.8025601,98.419723 69.4253173,97.1610595 C71.0603856,96.7157799 72.7131111,96.3164419 74.383494,95.9630454 C78.8363674,95.014112 83.3529191,94.3939975 87.8966444,94.1077139 C89.5387756,94.005229 91.1897354,93.9469186 92.8495239,93.9327827 L93.7606419,93.9327827 C95.5934721,93.9327827 97.4104108,93.9963941 99.2167551,94.102413 L99.8100412,93.095233 C100.537523,91.8795492 101.282662,90.6762342 102.045459,89.4852881 C103.42273,87.3154337 104.867099,85.1773851 106.378566,83.0711421 C107.960662,80.8482783 109.611622,78.6607541 111.331445,76.5085696 L111.771113,75.9784748 C112.745797,74.762791 113.74167,73.561243 114.758732,72.3738308 C117.937051,68.6667018 121.291942,65.0708927 124.823407,61.5864035 C163.021497,24.1193093 222.863935,0 290.138341,0 C342.485246,0 390.334829,14.6041093 426.986137,38.7340205 C440.871064,30.8709022 456.556187,26.7450265 472.510251,26.759181 C524.285058,26.759181 566.270644,69.3628929 566.270644,121.916482 C566.262936,125.241719 566.086134,128.564409 565.740924,131.871661 C591.068083,149.813078 606.086606,178.965683 605.999624,210.018223 Z" id="Path" fill="#FFC107" opacity="0.1"></path>
                    <path d="M125,62 L125,72 L115,72 C118.133333,68.5667486 121.466667,65.2334152 125,62 Z" id="Path" fill="#FFC107" opacity="0.2"></path>
                    <rect id="Rectangle" fill="#FFC107" opacity="0.2" x="130" y="58" width="14" height="14"></rect>
                    <rect id="Rectangle" fill="#FFC107" opacity="0.2" x="148" y="58" width="14" height="14"></rect>
                    <rect id="Rectangle" fill="#FFC107" opacity="0.2" x="167" y="58" width="14" height="14"></rect>
                    <rect id="Rectangle" fill="#FFC107" opacity="0.2" x="186" y="58" width="14" height="14"></rect>
                    <rect id="Rectangle" fill="#FFC107" opacity="0.2" x="204" y="58" width="14" height="14"></rect>
                    <rect id="Rectangle" fill="#FFC107" x="221" y="58" width="14" height="14"></rect>
                    <rect id="Rectangle" fill="#FFC107" opacity="0.2" x="240" y="58" width="14" height="14"></rect>
                    <rect id="Rectangle" fill="#FFC107" opacity="0.2" x="259" y="58" width="14" height="14"></rect>
                    <rect id="Rectangle" fill="#FFC107" opacity="0.2" x="277" y="58" width="14" height="14"></rect>
                    <rect id="Rectangle" fill="#FFC107" x="296" y="58" width="14" height="14"></rect>
                    <rect id="Rectangle" fill="#FFC107" opacity="0.2" x="315" y="58" width="14" height="14"></rect>
                    <rect id="Rectangle" fill="#FFC107" opacity="0.2" x="333" y="58" width="14" height="14"></rect>
                    <rect id="Rectangle" fill="#FFC107" opacity="0.2" x="351" y="58" width="14" height="14"></rect>
                    <rect id="Rectangle" fill="#FFC107" opacity="0.2" x="371" y="58" width="14" height="14"></rect>
                    <rect id="Rectangle" fill="#FFC107" opacity="0.2" x="388" y="58" width="14" height="14"></rect>
                    <rect id="Rectangle" fill="#FFC107" opacity="0.2" x="406" y="58" width="14" height="14"></rect>
                    <rect id="Rectangle" fill="#FFC107" x="425" y="58" width="14" height="14"></rect>
                    <rect id="Rectangle" fill="#FFC107" x="444" y="58" width="14" height="14"></rect>
                    <rect id="Rectangle" fill="#FFC107" opacity="0.2" x="462" y="58" width="14" height="14"></rect>
                    <rect id="Rectangle" fill="#FFC107" opacity="0.2" x="480" y="58" width="14" height="14"></rect>
                    <rect id="Rectangle" fill="#FFC107" x="500" y="58" width="14" height="14"></rect>
                    <rect id="Rectangle" fill="#FFC107" x="518" y="58" width="14" height="14"></rect>
                    <path d="M106,84 L106,90 L102,90 C103.271394,87.9570248 104.604727,85.9570248 106,84 Z" id="Path" fill="#FFC107"></path>
                    <rect id="Rectangle" fill="#FFC107" opacity="0.2" x="111" y="76" width="14" height="14"></rect>
                    <rect id="Rectangle" fill="#FFC107" x="130" y="76" width="14" height="14"></rect>
                    <rect id="Rectangle" fill="#FFC107" opacity="0.2" x="148" y="76" width="14" height="14"></rect>
                    <rect id="Rectangle" fill="#FFC107" opacity="0.7" x="167" y="76" width="14" height="14"></rect>
                    <rect id="Rectangle" fill="#FFC107" opacity="0.2" x="186" y="76" width="14" height="14"></rect>
                    <rect id="Rectangle" fill="#FFC107" opacity="0.4" x="204" y="76" width="14" height="14"></rect>
                    <rect id="Rectangle" fill="#FFC107" x="221" y="76" width="14" height="14"></rect>
                    <rect id="Rectangle" fill="#FFC107" opacity="0.4" x="240" y="76" width="14" height="14"></rect>
                    <rect id="Rectangle" fill="#FFC107" opacity="0.2" x="259" y="76" width="14" height="14"></rect>
                    <rect id="Rectangle" fill="#FFC107" opacity="0.4" x="277" y="76" width="14" height="14"></rect>
                    <rect id="Rectangle" fill="#FFC107" x="296" y="76" width="14" height="14"></rect>
                    <rect id="Rectangle" fill="#FFC107" opacity="0.4" x="315" y="76" width="14" height="14"></rect>
                    <rect id="Rectangle" fill="#FFC107" opacity="0.4" x="333" y="76" width="14" height="14"></rect>
                    <rect id="Rectangle" fill="#FFC107" opacity="0.2" x="351" y="76" width="14" height="14"></rect>
                    <rect id="Rectangle" fill="#FFC107" opacity="0.4" x="371" y="76" width="14" height="14"></rect>
                    <rect id="Rectangle" fill="#FFC107" opacity="0.4" x="388" y="76" width="14" height="14"></rect>
                    <rect id="Rectangle" fill="#FFC107" opacity="0.2" x="406" y="76" width="14" height="14"></rect>
                    <rect id="Rectangle" fill="#FFC107" opacity="0.2" x="425" y="76" width="14" height="14"></rect>
                    <rect id="Rectangle" fill="#FFC107" opacity="0.4" x="444" y="76" width="14" height="14"></rect>
                    <rect id="Rectangle" fill="#FFC107" opacity="0.2" x="462" y="76" width="14" height="14"></rect>
                    <rect id="Rectangle" fill="#FFC107" x="480" y="76" width="14" height="14"></rect>
                    <rect id="Rectangle" fill="#FFC107" x="500" y="76" width="14" height="14"></rect>
                    <rect id="Rectangle" fill="#FFC107" x="518" y="76" width="14" height="14"></rect>
                    <path d="M70,98 L70,107 L56,107 L56,102.603477 C60.5299289,100.737654 65.2106948,99.1985257 70,98 Z" id="Path" fill="#FFC107" opacity="0.2"></path>
                    <polygon id="Path" fill="#FFC107" opacity="0.2" points="88 94 88 106 74 106 74 95.7804154"></polygon>
                    <rect id="Rectangle" fill="#FFC107" x="92" y="92" width="14" height="14"></rect>
                    <rect id="Rectangle" fill="#FFC107" opacity="0.7" x="111" y="92" width="14" height="14"></rect>
                    <rect id="Rectangle" fill="#FFC107" x="130" y="92" width="14" height="14"></rect>
                    <rect id="Rectangle" fill="#FFC107" opacity="0.7" x="148" y="92" width="14" height="14"></rect>
                    <rect id="Rectangle" fill="#FFC107" opacity="0.7" x="167" y="92" width="14" height="14"></rect>
                    <rect id="Rectangle" fill="#FFC107" opacity="0.2" x="186" y="92" width="14" height="14"></rect>
                    <rect id="Rectangle" fill="#FFC107" opacity="0.4" x="204" y="92" width="14" height="14"></rect>
                    <rect id="Rectangle" fill="#FFC107" opacity="0.4" x="221" y="92" width="14" height="14"></rect>
                    <rect id="Rectangle" fill="#FFC107" x="240" y="92" width="14" height="14"></rect>
                    <rect id="Rectangle" fill="#FFC107" opacity="0.2" x="259" y="92" width="14" height="14"></rect>
                    <rect id="Rectangle" fill="#FFC107" opacity="0.4" x="277" y="92" width="14" height="14"></rect>
                    <rect id="Rectangle" fill="#FFC107" x="296" y="92" width="14" height="14"></rect>
                    <rect id="Rectangle" fill="#FFC107" opacity="0.2" x="315" y="92" width="14" height="14"></rect>
                    <rect id="Rectangle" fill="#FFC107" opacity="0.4" x="333" y="92" width="14" height="14"></rect>
                    <rect id="Rectangle" fill="#FFC107" opacity="0.2" x="351" y="92" width="14" height="14"></rect>
                    <rect id="Rectangle" fill="#FFC107" x="371" y="92" width="14" height="14"></rect>
                    <rect id="Rectangle" fill="#FFC107" opacity="0.2" x="388" y="92" width="14" height="14"></rect>
                    <rect id="Rectangle" fill="#FFC107" opacity="0.7" x="406" y="92" width="14" height="14"></rect>
                    <rect id="Rectangle" fill="#FFC107" opacity="0.7" x="425" y="92" width="14" height="14"></rect>
                    <rect id="Rectangle" fill="#FFC107" opacity="0.4" x="444" y="92" width="14" height="14"></rect>
                    <rect id="Rectangle" fill="#FFC107" opacity="0.2" x="462" y="92" width="14" height="14"></rect>
                    <rect id="Rectangle" fill="#FFC107" x="480" y="92" width="14" height="14"></rect>
                    <rect id="Rectangle" fill="#FFC107" x="500" y="92" width="14" height="14"></rect>
                    <rect id="Rectangle" fill="#FFC107" x="518" y="92" width="14" height="14"></rect>
                    <rect id="Rectangle" fill="#FFC107" opacity="0.2" x="56" y="110" width="14" height="14"></rect>
                    <rect id="Rectangle" fill="#FFC107" opacity="0.2" x="74" y="110" width="14" height="14"></rect>
                    <rect id="Rectangle" fill="#FFC107" opacity="0.2" x="92" y="110" width="14" height="14"></rect>
                    <rect id="Rectangle" fill="#FFC107" opacity="0.2" x="111" y="110" width="14" height="14"></rect>
                    <rect id="Rectangle" fill="#FFC107" x="130" y="110" width="14" height="14"></rect>
                    <rect id="Rectangle" fill="#FFC107" opacity="0.7" x="148" y="110" width="14" height="14"></rect>
                    <rect id="Rectangle" fill="#FFC107" opacity="0.7" x="167" y="110" width="14" height="14"></rect>
                    <rect id="Rectangle" fill="#FFC107" opacity="0.2" x="186" y="110" width="14" height="14"></rect>
                    <rect id="Rectangle" fill="#FFC107" opacity="0.2" x="204" y="110" width="14" height="14"></rect>
                    <rect id="Rectangle" fill="#FFC107" opacity="0.4" x="221" y="110" width="14" height="14"></rect>
                    <rect id="Rectangle" fill="#FFC107" opacity="0.4" x="240" y="110" width="14" height="14"></rect>
                    <rect id="Rectangle" fill="#FFC107" x="259" y="110" width="14" height="14"></rect>
                    <rect id="Rectangle" fill="#FFC107" opacity="0.2" x="277" y="110" width="14" height="14"></rect>
                    <rect id="Rectangle" fill="#FFC107" opacity="0.4" x="296" y="110" width="14" height="14"></rect>
                    <rect id="Rectangle" fill="#FFC107" opacity="0.4" x="315" y="110" width="14" height="14"></rect>
                    <rect id="Rectangle" fill="#FFC107" opacity="0.4" x="333" y="110" width="14" height="14"></rect>
                    <rect id="Rectangle" fill="#FFC107" opacity="0.4" x="351" y="110" width="14" height="14"></rect>
                    <rect id="Rectangle" fill="#FFC107" opacity="0.2" x="371" y="110" width="14" height="14"></rect>
                    <rect id="Rectangle" fill="#FFC107" opacity="0.2" x="388" y="110" width="14" height="14"></rect>
                    <rect id="Rectangle" fill="#FFC107" opacity="0.2" x="406" y="110" width="14" height="14"></rect>
                    <rect id="Rectangle" fill="#FFC107" opacity="0.2" x="425" y="110" width="14" height="14"></rect>
                    <rect id="Rectangle" fill="#FFC107" opacity="0.7" x="444" y="110" width="14" height="14"></rect>
                    <rect id="Rectangle" fill="#FFC107" opacity="0.7" x="462" y="110" width="14" height="14"></rect>
                    <rect id="Rectangle" fill="#FFC107" opacity="0.4" x="480" y="110" width="14" height="14"></rect>
                    <rect id="Rectangle" fill="#FFC107" opacity="0.2" x="500" y="110" width="14" height="14"></rect>
                    <rect id="Rectangle" fill="#FFC107" x="518" y="110" width="14" height="14"></rect>
                    <rect id="Rectangle" fill="#FFC107" opacity="0.2" x="56" y="126" width="14" height="14"></rect>
                    <rect id="Rectangle" fill="#FFC107" opacity="0.2" x="74" y="126" width="14" height="14"></rect>
                    <rect id="Rectangle" fill="#FFC107" opacity="0.4" x="92" y="126" width="14" height="14"></rect>
                    <rect id="Rectangle" fill="#FFC107" opacity="0.2" x="111" y="126" width="14" height="14"></rect>
                    <rect id="Rectangle" fill="#FFC107" opacity="0.2" x="130" y="126" width="14" height="14"></rect>
                    <rect id="Rectangle" fill="#FFC107" opacity="0.7" x="148" y="126" width="14" height="14"></rect>
                    <rect id="Rectangle" fill="#FFC107" opacity="0.7" x="167" y="126" width="14" height="14"></rect>
                    <rect id="Rectangle" fill="#FFC107" opacity="0.2" x="186" y="126" width="14" height="14"></rect>
                    <rect id="Rectangle" fill="#FFC107" opacity="0.2" x="204" y="126" width="14" height="14"></rect>
                    <rect id="Rectangle" fill="#FFC107" opacity="0.4" x="221" y="126" width="14" height="14"></rect>
                    <rect id="Rectangle" fill="#FFC107" x="240" y="126" width="14" height="14"></rect>
                    <rect id="Rectangle" fill="#FFC107" opacity="0.2" x="259" y="126" width="14" height="14"></rect>
                    <rect id="Rectangle" fill="#FFC107" x="277" y="126" width="14" height="14"></rect>
                    <rect id="Rectangle" fill="#FFC107" x="296" y="126" width="14" height="14"></rect>
                    <rect id="Rectangle" fill="#FFC107" x="315" y="126" width="14" height="14"></rect>
                    <rect id="Rectangle" fill="#FFC107" opacity="0.2" x="333" y="126" width="14" height="14"></rect>
                    <rect id="Rectangle" fill="#FFC107" x="351" y="126" width="14" height="14"></rect>
                    <rect id="Rectangle" fill="#FFC107" opacity="0.2" x="371" y="126" width="14" height="14"></rect>
                    <rect id="Rectangle" fill="#FFC107" opacity="0.2" x="388" y="126" width="14" height="14"></rect>
                    <rect id="Rectangle" fill="#FFC107" opacity="0.2" x="406" y="126" width="14" height="14"></rect>
                    <rect id="Rectangle" fill="#FFC107" opacity="0.2" x="425" y="126" width="14" height="14"></rect>
                    <rect id="Rectangle" fill="#FFC107" opacity="0.2" x="444" y="126" width="14" height="14"></rect>
                    <rect id="Rectangle" fill="#FFC107" opacity="0.7" x="462" y="126" width="14" height="14"></rect>
                    <rect id="Rectangle" fill="#FFC107" opacity="0.2" x="480" y="126" width="14" height="14"></rect>
                    <rect id="Rectangle" fill="#FFC107" opacity="0.2" x="500" y="126" width="14" height="14"></rect>
                    <rect id="Rectangle" fill="#FFC107" x="518" y="126" width="14" height="14"></rect>
                    <rect id="Rectangle" fill="#FFC107" opacity="0.2" x="56" y="145" width="14" height="14"></rect>
                    <rect id="Rectangle" fill="#FFC107" opacity="0.2" x="74" y="145" width="14" height="14"></rect>
                    <rect id="Rectangle" fill="#FFC107" opacity="0.2" x="92" y="145" width="14" height="14"></rect>
                    <rect id="Rectangle" fill="#FFC107" opacity="0.4" x="111" y="145" width="14" height="14"></rect>
                    <rect id="Rectangle" fill="#FFC107" opacity="0.2" x="130" y="145" width="14" height="14"></rect>
                    <rect id="Rectangle" fill="#FFC107" opacity="0.2" x="148" y="145" width="14" height="14"></rect>
                    <rect id="Rectangle" fill="#FFC107" opacity="0.7" x="167" y="145" width="14" height="14"></rect>
                    <rect id="Rectangle" fill="#FFC107" opacity="0.2" x="186" y="145" width="14" height="14"></rect>
                    <rect id="Rectangle" fill="#FFC107" opacity="0.2" x="204" y="145" width="14" height="14"></rect>
                    <rect id="Rectangle" fill="#FFC107" opacity="0.2" x="221" y="145" width="14" height="14"></rect>
                    <rect id="Rectangle" fill="#FFC107" x="240" y="145" width="14" height="14"></rect>
                    <rect id="Rectangle" fill="#FFC107" opacity="0.2" x="259" y="145" width="14" height="14"></rect>
                    <rect id="Rectangle" fill="#FFC107" x="277" y="145" width="14" height="14"></rect>
                    <rect id="Rectangle" fill="#FFC107" x="296" y="145" width="14" height="14"></rect>
                    <rect id="Rectangle" fill="#FFC107" opacity="0.2" x="315" y="145" width="14" height="14"></rect>
                    <rect id="Rectangle" fill="#FFC107" opacity="0.2" x="333" y="145" width="14" height="14"></rect>
                    <rect id="Rectangle" fill="#FFC107" opacity="0.2" x="351" y="145" width="14" height="14"></rect>
                    <rect id="Rectangle" fill="#FFC107" opacity="0.2" x="371" y="145" width="14" height="14"></rect>
                    <rect id="Rectangle" fill="#FFC107" opacity="0.2" x="388" y="145" width="14" height="14"></rect>
                    <rect id="Rectangle" fill="#FFC107" opacity="0.2" x="406" y="145" width="14" height="14"></rect>
                    <rect id="Rectangle" fill="#FFC107" opacity="0.2" x="425" y="145" width="14" height="14"></rect>
                    <rect id="Rectangle" fill="#FFC107" opacity="0.2" x="444" y="145" width="14" height="14"></rect>
                    <rect id="Rectangle" fill="#FFC107" opacity="0.2" x="462" y="145" width="14" height="14"></rect>
                    <rect id="Rectangle" fill="#FFC107" opacity="0.2" x="480" y="145" width="14" height="14"></rect>
                    <rect id="Rectangle" fill="#FFC107" opacity="0.4" x="500" y="145" width="14" height="14"></rect>
                    <rect id="Rectangle" fill="#FFC107" x="518" y="145" width="14" height="14"></rect>
                    <rect id="Rectangle" fill="#FFC107" opacity="0.7" x="56" y="162" width="14" height="14"></rect>
                    <rect id="Rectangle" fill="#FFC107" opacity="0.7" x="74" y="162" width="14" height="14"></rect>
                    <rect id="Rectangle" fill="#FFC107" opacity="0.7" x="92" y="162" width="14" height="14"></rect>
                    <rect id="Rectangle" fill="#FFC107" opacity="0.7" x="111" y="162" width="14" height="14"></rect>
                    <rect id="Rectangle" fill="#FFC107" opacity="0.7" x="130" y="162" width="14" height="14"></rect>
                    <rect id="Rectangle" fill="#FFC107" opacity="0.2" x="148" y="162" width="14" height="14"></rect>
                    <rect id="Rectangle" fill="#FFC107" opacity="0.2" x="167" y="162" width="14" height="14"></rect>
                    <rect id="Rectangle" fill="#FFC107" opacity="0.2" x="186" y="162" width="14" height="14"></rect>
                    <rect id="Rectangle" fill="#FFC107" opacity="0.2" x="204" y="162" width="14" height="14"></rect>
                    <rect id="Rectangle" fill="#FFC107" opacity="0.2" x="221" y="162" width="14" height="14"></rect>
                    <rect id="Rectangle" fill="#FFC107" opacity="0.2" x="240" y="162" width="14" height="14"></rect>
                    <rect id="Rectangle" fill="#FFC107" x="259" y="162" width="14" height="14"></rect>
                    <rect id="Rectangle" fill="#FFC107" opacity="0.2" x="277" y="162" width="14" height="14"></rect>
                    <rect id="Rectangle" fill="#FFC107" opacity="0.2" x="296" y="162" width="14" height="14"></rect>
                    <rect id="Rectangle" fill="#FFC107" opacity="0.2" x="315" y="162" width="14" height="14"></rect>
                    <rect id="Rectangle" fill="#FFC107" x="333" y="162" width="14" height="14"></rect>
                    <rect id="Rectangle" fill="#FFC107" opacity="0.2" x="351" y="162" width="14" height="14"></rect>
                    <rect id="Rectangle" fill="#FFC107" opacity="0.2" x="371" y="162" width="14" height="14"></rect>
                    <rect id="Rectangle" fill="#FFC107" opacity="0.2" x="388" y="162" width="14" height="14"></rect>
                    <rect id="Rectangle" fill="#FFC107" opacity="0.2" x="406" y="162" width="14" height="14"></rect>
                    <rect id="Rectangle" fill="#FFC107" opacity="0.2" x="425" y="162" width="14" height="14"></rect>
                    <rect id="Rectangle" fill="#FFC107" opacity="0.2" x="444" y="162" width="14" height="14"></rect>
                    <rect id="Rectangle" fill="#FFC107" opacity="0.2" x="462" y="162" width="14" height="14"></rect>
                    <rect id="Rectangle" fill="#FFC107" opacity="0.2" x="480" y="162" width="14" height="14"></rect>
                    <rect id="Rectangle" fill="#FFC107" opacity="0.2" x="500" y="162" width="14" height="14"></rect>
                    <rect id="Rectangle" fill="#FFC107" x="518" y="162" width="14" height="14"></rect>
                    <circle id="Oval" fill="#767D9F" cx="389.5" cy="193.5" r="18.5"></circle>
                    <path d="M388.475103,169.192548 C390.325929,177.265113 391.896648,185.397921 393.187262,193.590973 C393.57551,196.025499 393.921211,198.592915 393.038345,200.894553 C392.299079,202.813471 390.793953,204.312459 389.613254,205.992176 C388.432555,207.671894 387.539053,209.824696 388.257046,211.748929 C388.975039,213.673162 391.070514,214.725643 393.070256,215.26783 C398.792924,216.809343 404.893203,215.687759 410.589278,214.018673 C413.168312,213.35509 415.640896,212.331523 417.934077,210.978172 C420.34866,209.447291 422.327129,207.321067 424.146044,205.131055 C432.448167,195.068699 437.883637,182.991744 443,170.989207 C436.33042,171.595897 429.776404,168.956729 425.390564,163.898249 C423.295089,161.437144 421.758053,158.008608 422.938752,155 C419.476432,156.897655 415.365259,157.025229 411.637015,158.322226 C409.324909,159.204787 407.099409,160.299136 404.988935,161.591296 C402.443163,163.061934 399.911574,164.560922 397.394168,166.08826 C394.516879,167.821133 391.820417,169.362646 388.475103,169.192548 Z" id="Path" fill="#AE6E79"></path>
                    <path d="M427.408034,183.068859 C424.179722,189.374739 419.979217,195.436657 413.98227,199.191546 C407.985323,202.946435 399.9119,203.96471 393.904385,200.25225 C390.945539,198.438447 388.70527,195.680619 386.121563,193.357679 C383.537856,191.03474 380.309544,189.045921 376.838183,189.348222 C373.012818,189.682343 370.016986,192.678829 367.454414,195.548031 C363.565644,199.907521 359.808966,204.452634 357.056183,209.612954 C351.772529,219.530528 350.520303,231.124013 350.752784,242.367466 C350.985264,253.610919 352.607346,264.796033 352.644332,276.039486 C352.697168,289.871055 350.361793,303.591249 348,317.215981 C369.715818,314.532402 391.458053,320.39809 413.221424,322.620263 C427.149135,324.057516 441.18252,324.025694 455.184203,323.98857 C457.646386,323.98857 460.267078,323.924928 462.317136,322.556621 C463.57019,321.639048 464.583526,320.430847 465.270698,319.035086 C467.204516,315.455213 467.981213,311.371506 468.520145,307.335531 C469.888612,297.142174 469.930881,286.821533 469.967867,276.532713 C470.062972,251.60619 470.152795,226.589508 466.998453,201.859215 C466.221756,195.776082 465.228429,189.661129 462.903621,183.970457 C460.578814,178.279785 456.78515,173.045215 451.480362,169.995694 C448.072405,168.033393 440.173342,164.617929 436.157765,166.59614 C431.650809,168.802403 429.569049,178.847261 427.408034,183.068859 Z" id="Path" fill="#767D9F"></path>
                    <path d="M428.606883,253.834629 C427.788214,238.451676 424.455436,222.034352 431.548813,208.380655 C433.291787,205.028232 427.038207,200.843008 428.971324,197.596674 C431.330421,193.638693 433.119336,189.36504 434.284754,184.903086 C434.686166,183.370095 435.008352,181.746928 434.628067,180.208633 C433.925595,177.40257 431.163246,175.731663 428.818153,174.023625 C426.230101,172.135235 424.899102,166.379889 424.064587,163.266167 C423.230072,160.152445 430.703734,163.902703 433.709044,162.794069 C437.881618,161.261078 443.184485,162.226491 447.346496,163.7807 C449.670461,164.640024 452.195133,164.714286 454.672269,164.77794 C459.483934,164.905247 464.311444,165.02725 469.086137,164.433149 C471.230523,164.162622 473.380191,163.754178 475.535141,163.87618 C481.033432,164.189144 485.813406,167.965924 489.066958,172.432285 C492.32051,176.898646 494.390952,182.102327 497.05823,186.940001 C499.281843,190.971396 501.933276,194.780003 503.82942,198.975836 C505.509014,202.688962 506.570643,206.677921 507.62171,210.645662 L510.331242,220.824933 C510.805229,222.281112 511.030243,223.807392 510.996741,225.339034 C510.859416,226.967505 510.141099,228.484583 509.412219,229.932702 C506.656037,235.300039 503.351239,240.364785 499.551211,245.045127 C493.852214,252.062937 486.933135,258.391165 483.54754,266.79344 C482.227105,270.066296 481.492943,273.546026 480.822162,277.015147 C478.117693,290.890097 476.1956,304.907366 475.065066,319 C468.893508,316.131826 462.424357,313.959641 455.776153,312.523246 C452.462128,311.811137 449.112115,311.279911 445.740847,310.931906 C442.788355,310.624247 438.98022,311.207739 436.170335,310.40146 C431.469586,309.05943 430.951976,301.076208 430.238941,296.896288 C429.098085,290.239182 428.87097,283.465379 428.828717,276.739315 C428.775899,269.090274 429.013577,261.457147 428.606883,253.834629 Z" id="Path" fill="#4C4981"></path>
                    <path d="M325.339515,224.16249 C327.598995,236.895807 330.089253,249.666262 335,261.630274 C334.87656,261.746996 334.753121,261.853107 334.629681,261.959218 C334.19496,262.3253 333.744137,262.670161 333.271847,263.020327 C332.171625,263.784326 330.964064,264.431603 330.051685,265.429046 C329.706197,265.810764 329.433454,266.251149 329.246644,266.728906 C328.905677,267.483502 328.905677,268.345889 329.246644,269.100486 C326.686616,270.219957 323.713333,269.875096 320.842023,269.768985 C318.367865,269.678791 315.968845,269.768985 313.983078,271.111289 C311.224473,272.989453 310.392598,276.597226 309.947142,279.876055 C309.782556,281.071572 309.641227,282.268857 309.523154,283.467911 C309.40866,284.582076 309.315633,285.699778 309.244074,286.821018 C309.000793,290.530147 308.966749,294.249796 309.142102,297.962669 C309.170726,298.64178 309.208294,299.32089 309.254808,300 C300.485234,299.793084 292.493866,295.272756 284.931853,290.879762 C283.2037,289.877014 281.421877,288.821209 280.300187,287.165878 C279.266634,285.540148 278.828988,283.612929 279.060425,281.706469 C279.060425,281.435886 279.108727,281.175914 279.146296,280.900026 C279.386654,279.325606 279.798731,277.781537 280.375324,276.29481 C282.741228,269.96213 286.22869,264.096408 290.674475,258.972194 C292.595838,256.754475 294.758713,254.584505 295.654991,251.799092 C296.046778,250.584122 296.191685,249.294873 296.588838,248.085208 C298.370661,242.843327 304.800251,240.365635 307.000694,235.277614 C307.537388,234.062644 307.784267,232.730951 308.449767,231.563731 C309.048885,230.593667 309.82183,229.739668 310.730715,229.043595 C311.122501,228.719957 311.530388,228.406929 311.932909,228.093902 C315.704076,225.172313 319.337491,222.086252 322.833156,218.83572 C323.484344,218.230887 324.128376,217.618981 324.765253,217 C324.680217,219.401323 324.872886,221.804392 325.339515,224.16249 L325.339515,224.16249 Z" id="Path" fill="#4C4981"></path>
                    <path d="M378.108258,186.5829 C377.342801,187.390873 376.513555,188.151004 375.700257,188.905821 L375.482314,189.102498 L374.621175,189.89984 C373.058195,191.248783 371.70549,192.823634 370.60784,194.572259 L370.517474,194.721096 C367.806479,199.574246 368.811142,205.548989 369.565968,211.061275 C370.502198,217.93049 370.923311,224.860111 370.825783,231.792146 C370.687575,241.36024 369.560652,250.864547 369.539389,260.42201 C369.539389,262.590778 369.587231,264.754231 369.682913,266.922999 C369.837067,270.447247 370.102851,273.966179 370.421792,277.485112 C370.76731,281.344243 371.181933,285.198059 371.569977,289.051875 C371.878287,292.033931 372.170649,295.010671 372.41517,297.987412 C372.53743,299.528938 372.654375,301.065149 372.750057,302.606675 C372.861686,304.413982 372.952053,306.226604 373.00521,308.033911 L373.00521,308.033911 C373.042419,309.182082 373.063682,310.324938 373.063682,311.473109 C373.063682,312.126929 373.063682,312.775433 373.063682,313.423937 C373.063682,314.66779 373.030016,315.908098 372.962684,317.144863 C372.891809,318.736001 372.783723,320.330684 372.638428,321.92891 C372.473642,323.667114 372.18128,325.564786 370.958675,326.787376 C370.884255,326.861794 370.80452,326.930897 370.724785,327 L369.002506,326.787376 C357.129898,325.365989 345.143746,325.152272 333.228012,326.149503 C333.48848,324.352827 333.727686,322.561467 333.961575,320.759476 C334.067889,319.908979 334.174202,319.053166 334.2752,318.197353 C334.392145,317.219281 334.503774,316.241209 334.610088,315.263138 C334.732348,314.200016 334.843977,313.136894 334.950291,312.073773 C335.226706,309.334463 335.469455,306.593381 335.678538,303.850527 C335.986848,299.849646 336.220737,295.841678 336.380208,291.826622 C336.458171,289.90946 336.518415,287.990525 336.560941,286.069819 C336.621185,283.688426 336.649535,281.305262 336.645991,278.920326 C336.645991,276.602721 336.626501,274.281572 336.587519,271.95688 C336.587519,271.191432 336.555625,270.425984 336.491837,269.665853 C336.446074,268.98143 336.351928,268.301105 336.210106,267.629975 C335.815409,266.082461 335.281671,264.57378 334.615403,263.122339 C334.498459,262.845928 334.386829,262.590778 334.2752,262.29842 C334.211412,262.154898 334.15294,262.006061 334.094467,261.86254 C337.156296,259.135633 339.335723,255.483811 341.430099,251.89046 C344.826815,246.101762 348.303267,240.057916 348.872044,233.370881 C349.440822,226.683847 346.118525,219.172893 339.729083,217.131699 C337.990857,216.600138 336.151634,216.451301 334.360251,216.13768 C332.669866,215.840006 329.145574,215.164924 327.189405,213.952966 C326.12627,215.044437 325.063135,216.116418 324,217.168908 C324.06448,215.56306 324.45704,213.987413 325.153502,212.539014 L325.908327,212.576223 C325.846827,212.405954 325.817973,212.225619 325.823277,212.044662 C325.823277,211.475892 326.216637,210.832704 327.056513,210.120412 C329.560196,207.994169 333.499112,207.52108 335.077867,204.645336 C335.737011,203.449324 335.84864,202.024741 336.380208,200.770258 C337.905806,197.192854 342.285923,195.874583 344.922498,193.014786 C347.559073,190.154989 348.218216,186.104495 350.349802,182.915131 C351.942045,180.586073 354.150581,178.745649 356.728612,177.599523 C356.941239,177.498526 357.159182,177.39753 357.377125,177.307164 C361.789135,175.420123 367.030391,174.989559 371.601871,175.00019 C373.377307,175.00019 377.980682,175.053346 380.234528,175.951684 C380.60008,176.08229 380.934829,176.286755 381.217928,176.552348 C383.620613,179.167627 379.883693,184.690544 378.108258,186.5829 Z" id="Path" fill="#4C4981"></path>
                    <path d="M325.937269,213.359062 C334.220184,210.888844 343.157019,211.811294 350.747982,215.919996 C354.569915,218.023433 357.999038,220.957727 360.101101,224.743913 C363.259504,230.423192 363.12149,237.269878 362.898544,243.753721 C362.787071,246.998272 362.643748,250.358512 361.199907,253.271772 C359.527811,256.642529 356.374717,258.956309 353.157923,260.849402 C351.142755,262.12304 348.934965,263.069262 346.618172,263.652231 C343.051035,264.419986 339.345883,263.76792 335.752205,263.126372 C331.84534,262.411204 327.651831,261.548795 324.93932,258.667086 C323.346848,256.994854 322.476297,254.823056 321.616362,252.698585 C320.381311,249.631073 319.142722,246.567067 317.900594,243.506567 C315.750757,238.190131 315.023528,233.767656 317.863436,228.587943 C319.153338,226.226836 320.729886,224.018227 322.003863,221.641344 C322.640852,220.431868 324.923395,213.669319 325.937269,213.359062 Z" id="Path" fill="#4C4981"></path>
                    <path d="M548,304.191298 L548,320.014504 C537.145046,324.524112 525.500784,326.826829 513.746514,326.788318 L371.03336,326.788318 C370.959275,326.862407 370.879899,326.931203 370.800523,327 L369.085996,326.788318 L115.224964,326.788318 C93.9256779,326.788318 74.1874575,321.04116 58,311.250882 L58,287.092709 L180.091212,273 L180.186464,273 L251.286392,279.022344 L269.6858,280.609957 L279.242697,281.419639 L299.023251,283.097217 L309.199283,283.95982 L324.016178,285.219326 L326.101126,285.393963 L336.779874,286.298902 L351.26868,287.489612 L371.641911,289.214818 L405.60435,292.098981 L429.496593,294.125833 L468.729613,297.454528 L476.190978,298.084281 L476.995324,298.153077 L477.693835,298.21129 L487.54707,299.047432 L498.363403,299.968248 L499.617547,300.074089 L548,304.191298 Z" id="Path" fill="#504F60"></path>
                    <polygon id="Path" fill="#9C9CA1" points="405 303.050599 251.934377 277 246 306.925196 316.164342 315.302562 337.768437 318 397.196904 306.328698"></polygon>
                    <path d="M325,318.244682 L401.848788,304.046513 C402.627273,303.900047 403.431607,304.103432 404.041523,304.60097 C404.651439,305.098509 405.003018,305.838059 404.99998,306.617096 L404.99998,306.617096 C405.003441,307.876604 404.090282,308.958452 402.83022,309.187679 L327.77984,323 L325,318.244682 Z" id="Path" fill="#9C9CA1"></path>
                    <path d="M358.851521,272.193339 C361.245794,271.972259 363.67192,271.598528 365.827297,270.545766 C368.481701,269.235077 370.546828,266.976901 373.004807,265.313537 C378.409175,261.628868 385.639773,261.13407 391.835153,263.250122 C398.030534,265.366175 403.201314,269.898317 406.821922,275.309516 C409.226813,278.915227 411.031808,283.515799 409.332989,287.495241 C408.750143,288.711665 408.015299,289.850569 407.145759,290.885136 L402.718213,296.622691 C401.8771,297.828795 400.865107,298.908441 399.713426,299.828352 C398.057078,301.023238 395.99726,301.512772 393.969295,301.807546 C388.580853,302.58659 383.096853,302.14443 377.665942,302.502369 C368.338364,303.118235 359.228447,306.097552 349.879634,305.99754 C344.507119,305.939638 339.203618,304.86582 333.953206,303.792003 L310.716548,299.054572 C306.671235,298.233417 302.10035,297.033268 300.194488,293.395974 C299.339769,291.758928 299.180505,289.863956 299.079638,288.021622 C298.803579,282.947307 299.079638,277.3045 302.625922,273.646151 C305.959854,270.214146 311.231502,269.1298 315.213109,266.592643 C320.086596,263.48173 321.695165,264.487118 326.834093,266.824251 C336.859652,271.326113 347.890473,273.175901 358.851521,272.193339 Z" id="Path" fill="#AE6E79"></path>
                    <path d="M358.851521,272.193339 C361.245794,271.972259 363.67192,271.598528 365.827297,270.545766 C368.481701,269.235077 370.546828,266.976901 373.004807,265.313537 C378.409175,261.628868 385.639773,261.13407 391.835153,263.250122 C398.030534,265.366175 403.201314,269.898317 406.821922,275.309516 C409.226813,278.915227 411.031808,283.515799 409.332989,287.495241 C408.750143,288.711665 408.015299,289.850569 407.145759,290.885136 L402.718213,296.622691 C401.8771,297.828795 400.865107,298.908441 399.713426,299.828352 C398.057078,301.023238 395.99726,301.512772 393.969295,301.807546 C388.580853,302.58659 383.096853,302.14443 377.665942,302.502369 C368.338364,303.118235 359.228447,306.097552 349.879634,305.99754 C344.507119,305.939638 339.203618,304.86582 333.953206,303.792003 L310.716548,299.054572 C306.671235,298.233417 302.10035,297.033268 300.194488,293.395974 C299.339769,291.758928 299.180505,289.863956 299.079638,288.021622 C298.803579,282.947307 299.079638,277.3045 302.625922,273.646151 C305.959854,270.214146 311.231502,269.1298 315.213109,266.592643 C320.086596,263.48173 321.695165,264.487118 326.834093,266.824251 C336.859652,271.326113 347.890473,273.175901 358.851521,272.193339 Z" id="Path" fill="#000000" opacity="0.05"></path>
                    <path d="M452.288034,263.737421 C445.777159,266.277854 439.229171,268.828985 432.41078,270.342548 C420.979636,272.882982 409.01829,272.481861 397.677281,275.385978 C391.686004,276.926283 385.731841,279.407885 379.576202,278.905147 C376.824456,278.680519 374.168147,277.83549 371.490629,277.193697 C356.448813,273.4499 339.349815,274.66396 327.133973,284.290866 C322.955985,287.580059 319.536186,291.682191 316.434507,296.057085 C315.090681,297.970304 314.66356,300.388718 315.269703,302.652362 C315.875845,304.916005 317.451982,306.788598 319.567998,307.759125 C324.318645,309.962906 329.407497,311.332137 334.615116,311.807774 C341.576662,312.428175 348.570019,311.433395 355.49445,310.438614 C365.769755,308.967837 376.050362,307.491711 386.299157,305.839092 C389.978755,305.245433 393.658353,304.630381 397.35916,304.159732 C423.99118,300.763573 451.105684,304.892446 477.806631,302.057857 C480.505357,301.76905 483.2518,301.39467 485.706633,300.234093 C491.920595,297.292538 494.995763,289.53753 493.712676,282.72382 C492.429588,275.910109 487.477506,270.246279 481.518041,266.769896 C476.523543,263.844386 471.136696,262.662416 465.574883,261.421615 C460.41072,260.207555 457.261323,261.812039 452.288034,263.737421 Z" id="Path" fill="#AE6E79"></path>
                    <path d="M509.670078,223.648124 C512.616458,227.503663 513.244026,232.676246 512.924924,237.503635 C512.605821,242.331025 511.457052,247.105308 511.286864,251.95394 C511.052856,258.602886 512.659005,265.230589 512.387768,271.858292 C512.196306,276.494498 511.095403,281.040423 509.792401,285.490755 C508.25539,290.742998 506.03231,296.388229 501.176633,298.910792 C494.730763,302.261818 481.211454,300.376534 474.430525,303 C475.047457,299.160393 480.96149,293.600133 481.578421,289.760526 C482.003891,287.105196 482.43468,284.375517 481.9773,281.714876 C481.392278,278.321365 479.397888,275.310221 477.031211,272.80359 C473.265801,268.815284 468.351623,265.814762 462.953472,264.8376 C457.555322,263.860439 444.33916,264.662348 440.020639,268.066481 C439.488802,264.550825 449.380979,261.162624 452.859197,260.403199 C454.592987,260.015521 456.582059,260.233258 457.970155,259.133952 C460.629342,257.052173 458.698772,252.904548 458.826413,249.574764 C458.927462,246.919435 460.480428,244.487153 460.794212,241.831823 C461.32605,237.583295 458.549858,233.255108 459.640125,229.08624 C460.044321,227.546149 460.943127,226.19193 461.565376,224.726188 C463.458718,220.238681 462.629051,215.119205 461.61856,210.350233 C460.990992,207.355021 460.379379,203.977441 462.049349,201.423014 C463.596996,199.038528 467.989973,207.530273 470.803394,207.137284 C480.094595,205.836172 488.502946,198.958868 496.007173,204.588167 C499.831084,207.455923 500.331012,210.429893 501.857385,214.524411 C503.341212,218.422435 507.186397,220.419243 509.670078,223.648124 Z" id="Path" fill="#000000" opacity="0.1"></path>
                    <path d="M510.670078,224.340468 C513.616458,228.210955 514.244026,233.403593 513.924924,238.249698 C513.605821,243.095804 512.457052,247.888598 512.286864,252.756029 C512.052856,259.430753 513.659005,266.084153 513.387768,272.737552 C513.196306,277.391733 512.095403,281.955283 510.792401,286.42287 C509.25539,291.695476 507.03231,297.362594 502.176633,299.894938 C495.730763,303.258956 482.211454,301.366363 475.430525,304 C476.047457,300.145507 481.96149,294.563688 482.578421,290.709195 C483.003891,288.04357 483.43468,285.303308 482.9773,282.632352 C482.392278,279.225683 480.397888,276.202864 478.031211,273.686515 C474.265801,269.682746 469.351623,266.67059 463.953472,265.68964 C458.555322,264.70869 445.33916,265.513709 441.020639,268.93104 C440.488802,265.401753 450.380979,262.000415 453.859197,261.238047 C455.592987,260.848866 457.582059,261.067447 458.970155,259.963878 C461.629342,257.874028 459.698772,253.710322 459.826413,250.367629 C459.927462,247.702004 461.480428,245.260292 461.794212,242.594667 C462.32605,238.329667 459.549858,233.984699 460.640125,229.799668 C461.044321,228.253605 461.943127,226.894137 462.565376,225.422712 C464.458718,220.917806 463.629051,215.778481 462.61856,210.991019 C461.990992,207.984194 461.379379,204.59352 463.049349,202.029188 C464.596996,199.635457 467.623151,198.729145 470.436571,198.329301 C479.856389,197.052084 489.400827,199.52051 497.028446,205.206613 C500.852358,208.085488 501.352285,211.070988 502.878659,215.181381 C504.341212,219.094519 508.186397,221.099068 510.670078,224.340468 Z" id="Path" fill="#4C4981"></path>
                    <path d="M159.232772,198.91611 L188.07961,305.597742 C188.804327,308.274127 191.109764,310.221604 193.868077,310.48745 L323.708025,322.969211 C325.855251,323.176399 327.969594,322.329013 329.380232,320.695906 C330.79087,319.062798 331.322701,316.846686 330.80699,314.75068 L299.21713,186.068019 C298.440906,182.909425 295.497479,180.774492 292.256113,181.019038 L165.137965,190.532996 C163.161887,190.686626 161.357149,191.713855 160.215232,193.334941 C159.073315,194.956026 158.713133,197.002156 159.232772,198.91611 Z" id="Path" fill="#9C9CA1"></path>
                    <ellipse id="Oval" fill="#FFFFFF" cx="417" cy="205.5" rx="14" ry="14.5"></ellipse>
                    <path d="M428.568329,179.234936 C428.568329,179.234936 431.389724,188.440799 423.064865,192.312067 L422,194.354174 L427.214855,200 C427.214855,200 433.643855,187.130356 432.947214,182.560186 C432.947214,182.560186 431.952013,177.919033 428.568329,179.234936 Z" id="Path" fill="#FFFFFF"></path>
                    <circle id="Oval" fill="#FFC107" cx="418.5" cy="206.5" r="13.5"></circle>
                    <path d="M433.474685,184 L431.289023,180.479386 L428.10602,180.03931 C428.785061,168.447172 425.702853,164.993864 425.702853,164.993864 L424.986678,164.926558 L421.867335,164.631448 L416,158.687824 L416,157 C424.243977,157.957814 428.800976,161.778715 431.262498,166.257143 C435.612602,174.116395 433.474685,184 433.474685,184 Z" id="Path" fill="#FFC107"></path>
                    <path d="M424.999331,162.948548 L424.999331,165 L421.875597,164.716183 L416,159 C416,159 425.089644,160.907054 424.999331,162.948548 Z" id="Path" stroke="#4C4981" fill="#000000" opacity="0.1"></path>
                    <path d="M433.415788,185 L431,181.424189 L431,167 C435.778803,174.961437 433.415788,185 433.415788,185 Z" id="Path" stroke="#4C4981" fill="#000000" opacity="0.1"></path>
                    <ellipse id="Oval" fill="#FFFFFF" transform="translate(386.369356, 199.869904) rotate(-30.000000) translate(-386.369356, -199.869904) " cx="386.369356" cy="199.869904" rx="7.64834122" ry="13.9561271"></ellipse>
                    <path d="M387.807053,198.803148 C391.631562,205.458628 396.324082,209.904425 392.694218,212.018954 C389.064354,214.133483 378.490402,213.076218 374.665893,206.415452 C370.841384,199.754686 374.313428,190.556486 377.943292,188.441957 C381.573156,186.327428 383.977283,192.13181 387.807053,198.803148 Z" id="Path" fill="#FFC107"></path>
                    <path d="M423,150.707618 C423,172.244612 408.511557,193 387.339378,193 C366.165124,193 349,175.539105 349,154 C349,132.460895 366.165124,115 387.339378,115 C408.511557,115.021414 423,129.165271 423,150.707618 Z" id="Path" fill="#000000" opacity="0.1"></path>
                    <circle id="Oval" fill="#AE6E79" cx="387" cy="153" r="39"></circle>
                    <path d="M383.003166,135.379848 C387.566771,137.073172 390.267036,141.829344 394.362174,144.478149 C400.152215,148.193908 407.689796,147.233119 414.30097,145.396472 C417.985542,144.382601 421.838551,143.145784 425.465223,144.271128 C425.998701,144.509327 426.587181,144.593845 427.165389,144.515306 C427.95494,144.287053 428.344452,143.405887 428.602372,142.620269 C433.087022,129.137373 431.071035,113.865605 424.301951,101.391272 C422.554411,98.1744863 420.459469,95.0638654 417.574976,92.8291019 C415.301068,91.0720789 412.627122,89.9201936 409.932121,88.9381717 C405.00702,87.1543629 399.913057,85.886102 394.730631,85.153406 C393.815433,84.98571 392.880687,84.9553017 391.956675,85.0631661 C390.68813,85.2701869 389.551176,85.9602564 388.419486,86.5760107 C383.572597,89.1962231 378.197488,90.6684637 372.702156,90.8809827 C365.333013,91.1623187 356.911135,89.4106039 351.231631,94.1773915 C344.388855,99.8943518 346.094285,111.046936 341.657008,118.807564 C338.719878,123.940619 333.056165,127.666994 332.124494,133.511352 C331.881885,135.297673 331.994617,137.114838 332.456106,138.856737 C334.62474,147.848873 343.257165,154.813266 352.458067,154.977821 C353.871034,155.086522 355.285961,154.794154 356.542677,154.133813 C357.366068,153.567161 358.093083,152.869844 358.69552,152.068913 C364.722427,144.870958 371.617839,131.1545 383.003166,135.379848 Z" id="Path" fill="#444053"></path>
                    <path d="M428.597703,138.455848 C428.339838,139.254671 427.950409,140.150648 427.161025,140.382738 C426.582939,140.462597 425.994584,140.376659 425.461218,140.134456 C421.835315,138.990196 417.962071,140.247802 414.304593,141.278715 C407.689556,143.146234 400.137783,144.144762 394.370018,140.344956 C390.270485,137.64623 387.576054,132.788523 383.008153,131.093723 C371.625237,126.775762 364.731285,140.744368 358.689867,148.063313 C358.087557,148.877707 357.360696,149.586745 356.53748,150.162921 C355.28103,150.834361 353.866403,151.131644 352.453734,151.021116 C343.286356,150.853795 334.650497,143.772338 332.456009,134.629054 C332.33497,134.089309 332.229719,133.549564 332.150781,133.009819 C332.150781,133.058396 332.150781,133.101576 332.124468,133.150153 C331.88191,134.9665 331.994618,136.814209 332.456009,138.585387 C334.624184,147.728671 343.260043,154.810128 352.453734,154.977449 C353.866403,155.087976 355.28103,154.790694 356.53748,154.119254 C357.360696,153.543077 358.087557,152.834039 358.689867,152.019645 C364.731285,144.7007 371.625237,130.753684 383.008153,135.050056 C387.576054,136.771843 390.270485,141.60796 394.370018,144.301288 C400.158833,148.079505 407.689556,147.102566 414.304593,145.235048 C417.988384,144.204134 421.835315,142.946528 425.461218,144.090788 C425.994584,144.332991 426.582939,144.418929 427.161025,144.339071 C427.950409,144.10698 428.339838,143.211003 428.597703,142.41218 C430.406184,136.802682 431.205054,130.902651 430.95533,125 C430.800401,129.577785 430.00645,134.109154 428.597703,138.455848 L428.597703,138.455848 Z" id="Path" fill="#000000" opacity="0.1"></path>
                </g>
            </g>
        </g>
    </g>
</svg>